# xmcd CD database file
# Copyright (C) 1995-1998 Ti Kan
#
# Track frame offsets:
#	150
#	13310
#	32387
#	46530
#	69597
#	81375
#	99925
#	118242
#	135730
#	155512
#	176477
#	198767
#	214067
#	235935
#	259512
#	276612
#	290750
#
# Disc length: 4455 seconds
#
# Revision: 34496348
# Submitted via:  CDmax 1.7.3
#
DISCID=f3116511
DTITLE=John Williams / Star Wars Episode 1 The Phantom Menace
TTITLE0=Star Wars Main Title and The Arrival at Naboo
TTITLE1=Duel of the Fates
TTITLE2=Anakin's Theme
TTITLE3=Jar Jar's Introduction and The Swim to Otoh Gunga
TTITLE4=The Sith Spacecraft and The Droid Battle
TTITLE5=The Trip to the Naboo Temple and The Audience with Boss Nass
TTITLE6=The Arrival at Tatooine and The Flag Parade
TTITLE7=He is the Chosen One
TTITLE8=Anakin Defeats Sebulba
TTITLE9=Passage Through the Planet Core
TTITLE10=Watto's Deal and Kids at Play
TTITLE11=Panaka and the Queen's Protectors
TTITLE12=Queen Amidala and the Naboo Palace
TTITLE13=The Droid Invasion and The Appearance of Darth Maul
TTITLE14=Qui-Gon's Noble End
TTITLE15=The High Council Meeting and Qui-Gon's Funeral
TTITLE16=Augie's Great Municipal Band and End Credits
EXTD=\nYEAR: 2000  ID3G:  24
EXTT0=
EXTT1=
EXTT2=
EXTT3=
EXTT4=
EXTT5=
EXTT6=
EXTT7=
EXTT8=
EXTT9=
EXTT10=
EXTT11=
EXTT12=
EXTT13=
EXTT14=
EXTT15=
EXTT16=
PLAYORDER=
